<svg id="Layer_1" data-name="Layer 1" xmlns="http://www.w3.org/2000/svg" xmlns:xlink="http://www.w3.org/1999/xlink" viewBox="0 0 512 512"><defs><style>.cls-1{fill:url(#linear-gradient);}.cls-2{fill:#fff;}</style><linearGradient id="linear-gradient" x1="80" y1="256" x2="432" y2="256" gradientUnits="userSpaceOnUse"><stop offset="0.23" stop-color="#1394e7"/><stop offset="1" stop-color="#000046"/></linearGradient></defs><circle class="cls-1" cx="256" cy="256" r="176"/><rect class="cls-2" x="269" y="293" width="10" height="10"/><rect class="cls-2" x="257" y="293" width="10" height="10"/><rect class="cls-2" x="245" y="293" width="10" height="10"/><rect class="cls-2" x="269" y="281" width="10" height="10"/><rect class="cls-2" x="257" y="281" width="10" height="10"/><rect class="cls-2" x="245" y="281" width="10" height="10"/><rect class="cls-2" x="269" y="269" width="10" height="10"/><rect class="cls-2" x="257" y="269" width="10" height="10"/><rect class="cls-2" x="245" y="269" width="10" height="10"/><rect class="cls-2" x="269" y="329" width="10" height="10"/><rect class="cls-2" x="257" y="329" width="10" height="10"/><rect class="cls-2" x="245" y="329" width="10" height="10"/><rect class="cls-2" x="269" y="317" width="10" height="10"/><rect class="cls-2" x="257" y="317" width="10" height="10"/><rect class="cls-2" x="245" y="317" width="10" height="10"/><rect class="cls-2" x="269" y="305" width="10" height="10"/><rect class="cls-2" x="257" y="305" width="10" height="10"/><rect class="cls-2" x="245" y="305" width="10" height="10"/><rect class="cls-2" x="233" y="293" width="10" height="10"/><rect class="cls-2" x="233" y="281" width="10" height="10"/><rect class="cls-2" x="233" y="329" width="10" height="10"/><rect class="cls-2" x="233" y="317" width="10" height="10"/><rect class="cls-2" x="233" y="305" width="10" height="10"/><rect class="cls-2" x="233" y="269" width="10" height="10"/><rect class="cls-2" x="221" y="269" width="10" height="10"/><rect class="cls-2" x="233" y="257" width="10" height="10"/><rect class="cls-2" x="233" y="245" width="10" height="10"/><rect class="cls-2" x="221" y="224" width="10" height="10"/><rect class="cls-2" x="233" y="233" width="10" height="10"/><rect class="cls-2" x="221" y="245" width="10" height="10"/><rect class="cls-2" x="209" y="245" width="10" height="10"/><rect class="cls-2" x="269" y="245" width="10" height="10"/><rect class="cls-2" x="257" y="245" width="10" height="10"/><rect class="cls-2" x="245" y="245" width="10" height="10"/><rect class="cls-2" x="269" y="233" width="10" height="10"/><rect class="cls-2" x="281" y="233" width="10" height="10"/><rect class="cls-2" x="293" y="233" width="10" height="10"/><rect class="cls-2" x="305" y="233" width="10" height="10"/><rect class="cls-2" x="317" y="233" width="10" height="10"/><rect class="cls-2" x="317" y="221" width="10" height="10"/><rect class="cls-2" x="293" y="221" width="10" height="10"/><rect class="cls-2" x="281" y="221" width="10" height="10"/><rect class="cls-2" x="281" y="209" width="10" height="10"/><rect class="cls-2" x="293" y="209" width="10" height="10"/><rect class="cls-2" x="293" y="197" width="10" height="10"/><rect class="cls-2" x="305" y="197" width="10" height="10"/><rect class="cls-2" x="317" y="185" width="10" height="10"/><rect class="cls-2" x="269" y="221" width="10" height="10"/><rect class="cls-2" x="257" y="221" width="10" height="10"/><rect class="cls-2" x="269" y="209" width="10" height="10"/><rect class="cls-2" x="257" y="209" width="10" height="10"/><rect class="cls-2" x="257" y="197" width="10" height="10"/><rect class="cls-2" x="257" y="185" width="10" height="10"/><rect class="cls-2" x="269" y="185" width="10" height="10"/><rect class="cls-2" x="269" y="197" width="10" height="10"/><rect class="cls-2" x="280" y="173" width="10" height="10"/><rect class="cls-2" x="257" y="173" width="10" height="10"/><rect class="cls-2" x="245" y="185" width="10" height="10"/><rect class="cls-2" x="245" y="209" width="10" height="10"/><rect class="cls-2" x="233" y="209" width="10" height="10"/><rect class="cls-2" x="329" y="221" width="10" height="10"/><rect class="cls-2" x="329" y="209" width="10" height="10"/><rect class="cls-2" x="341" y="209" width="10" height="10"/><rect class="cls-2" x="281" y="257" width="10" height="10"/><rect class="cls-2" x="281" y="245" width="10" height="10"/><rect class="cls-2" x="293" y="257" width="10" height="10"/><rect class="cls-2" x="305" y="251" width="10" height="10"/><rect class="cls-2" x="317" y="247" width="10" height="10"/><rect class="cls-2" x="329" y="247" width="10" height="10"/><rect class="cls-2" x="341" y="247" width="10" height="10"/><rect class="cls-2" x="352" y="260" width="10" height="10"/><rect class="cls-2" x="352" y="235" width="10" height="10"/><rect class="cls-2" x="365" y="246" width="10" height="10"/><rect class="cls-2" x="293" y="245" width="10" height="10"/><rect class="cls-2" x="257" y="233" width="10" height="10"/><rect class="cls-2" x="245" y="233" width="10" height="10"/><rect class="cls-2" x="197" y="236" width="10" height="10"/><rect class="cls-2" x="197" y="224" width="10" height="10"/><rect class="cls-2" x="209" y="212" width="10" height="10"/><rect class="cls-2" x="197" y="212" width="10" height="10"/><rect class="cls-2" x="197" y="200" width="10" height="10"/><rect class="cls-2" x="197" y="188" width="10" height="10"/><rect class="cls-2" x="185" y="176" width="10" height="10"/><rect class="cls-2" x="209" y="188" width="10" height="10"/><rect class="cls-2" x="221" y="200" width="10" height="10"/><rect class="cls-2" x="185" y="200" width="10" height="10"/><rect class="cls-2" x="185" y="224" width="10" height="10"/><rect class="cls-2" x="173" y="235" width="10" height="10"/><rect class="cls-2" x="161" y="235" width="10" height="10"/><rect class="cls-2" x="221" y="257" width="10" height="10"/><rect class="cls-2" x="209" y="269" width="10" height="10"/><rect class="cls-2" x="197" y="269" width="10" height="10"/><rect class="cls-2" x="185" y="269" width="10" height="10"/><rect class="cls-2" x="173" y="269" width="10" height="10"/><rect class="cls-2" x="161" y="269" width="10" height="10"/><rect class="cls-2" x="149" y="260" width="10" height="10"/><rect class="cls-2" x="137" y="269" width="10" height="10"/><rect class="cls-2" x="137" y="252" width="10" height="10"/><rect class="cls-2" x="209" y="257" width="10" height="10"/><rect class="cls-2" x="197" y="257" width="10" height="10"/><rect class="cls-2" x="185" y="257" width="10" height="10"/><rect class="cls-2" x="173" y="252" width="10" height="10"/><rect class="cls-2" x="161" y="252" width="10" height="10"/><rect class="cls-2" x="269" y="257" width="10" height="10"/><rect class="cls-2" x="257" y="257" width="10" height="10"/><rect class="cls-2" x="245" y="257" width="10" height="10"/></svg>