<svg id="Layer_1" data-name="Layer 1" xmlns="http://www.w3.org/2000/svg" xmlns:xlink="http://www.w3.org/1999/xlink" viewBox="0 0 512 512"><defs><style>.cls-1{fill:#fff;}.cls-2{fill:url(#linear-gradient);}.cls-3{fill:#f9f9f9;}</style><linearGradient id="linear-gradient" y1="256" x2="512" y2="256" gradientUnits="userSpaceOnUse"><stop offset="0.23" stop-color="#1394e7"/><stop offset="1" stop-color="#000046"/></linearGradient></defs><g id="mask-2"><rect id="path-1" class="cls-1" x="-0.33" y="-0.33" width="512.67" height="512.67"/></g><rect class="cls-1" x="-0.25" y="-0.25" width="512" height="512"/><rect class="cls-2" width="512" height="512"/><rect class="cls-3" x="268.79" y="254.61" width="10" height="10"/><rect class="cls-3" x="256.79" y="254.61" width="10" height="10"/><rect class="cls-3" x="244.79" y="254.61" width="10" height="10"/><rect class="cls-3" x="268.79" y="242.61" width="10" height="10"/><rect class="cls-3" x="256.79" y="242.61" width="10" height="10"/><rect class="cls-3" x="244.79" y="242.61" width="10" height="10"/><rect class="cls-3" x="268.79" y="230.61" width="10" height="10"/><rect class="cls-3" x="256.79" y="230.61" width="10" height="10"/><rect class="cls-3" x="244.79" y="230.61" width="10" height="10"/><rect class="cls-3" x="268.79" y="290.61" width="10" height="10"/><rect class="cls-3" x="256.79" y="290.61" width="10" height="10"/><rect class="cls-3" x="244.79" y="290.61" width="10" height="10"/><rect class="cls-3" x="268.79" y="278.61" width="10" height="10"/><rect class="cls-3" x="256.79" y="278.61" width="10" height="10"/><rect class="cls-3" x="244.79" y="278.61" width="10" height="10"/><rect class="cls-3" x="268.79" y="266.61" width="10" height="10"/><rect class="cls-3" x="256.79" y="266.61" width="10" height="10"/><rect class="cls-3" x="244.79" y="266.61" width="10" height="10"/><rect class="cls-3" x="232.79" y="254.61" width="10" height="10"/><rect class="cls-3" x="232.79" y="242.61" width="10" height="10"/><rect class="cls-3" x="232.79" y="290.61" width="10" height="10"/><rect class="cls-3" x="232.79" y="278.61" width="10" height="10"/><rect class="cls-3" x="232.79" y="266.61" width="10" height="10"/><rect class="cls-3" x="232.79" y="230.61" width="10" height="10"/><rect class="cls-3" x="220.79" y="230.61" width="10" height="10"/><rect class="cls-3" x="232.79" y="218.61" width="10" height="10"/><rect class="cls-3" x="232.79" y="206.61" width="10" height="10"/><rect class="cls-3" x="220.79" y="185.61" width="10" height="10"/><rect class="cls-3" x="232.79" y="194.61" width="10" height="10"/><rect class="cls-3" x="220.79" y="206.61" width="10" height="10"/><rect class="cls-3" x="208.79" y="206.61" width="10" height="10"/><rect class="cls-3" x="268.79" y="206.61" width="10" height="10"/><rect class="cls-3" x="256.79" y="206.61" width="10" height="10"/><rect class="cls-3" x="244.79" y="206.61" width="10" height="10"/><rect class="cls-3" x="268.79" y="194.61" width="10" height="10"/><rect class="cls-3" x="280.79" y="194.61" width="10" height="10"/><rect class="cls-3" x="292.79" y="194.61" width="10" height="10"/><rect class="cls-3" x="304.79" y="194.61" width="10" height="10"/><rect class="cls-3" x="316.79" y="194.61" width="10" height="10"/><rect class="cls-3" x="316.79" y="182.61" width="10" height="10"/><rect class="cls-3" x="292.79" y="182.61" width="10" height="10"/><rect class="cls-3" x="280.79" y="182.61" width="10" height="10"/><rect class="cls-3" x="280.79" y="170.61" width="10" height="10"/><rect class="cls-3" x="292.79" y="170.61" width="10" height="10"/><rect class="cls-3" x="292.79" y="158.61" width="10" height="10"/><rect class="cls-3" x="304.79" y="158.61" width="10" height="10"/><rect class="cls-3" x="316.79" y="146.61" width="10" height="10"/><rect class="cls-3" x="268.79" y="182.61" width="10" height="10"/><rect class="cls-3" x="256.79" y="182.61" width="10" height="10"/><rect class="cls-3" x="268.79" y="170.61" width="10" height="10"/><rect class="cls-3" x="256.79" y="170.61" width="10" height="10"/><rect class="cls-3" x="256.79" y="158.61" width="10" height="10"/><rect class="cls-3" x="256.79" y="146.61" width="10" height="10"/><rect class="cls-3" x="268.79" y="146.61" width="10" height="10"/><rect class="cls-3" x="268.79" y="158.61" width="10" height="10"/><rect class="cls-3" x="279.79" y="134.61" width="10" height="10"/><rect class="cls-3" x="256.79" y="134.61" width="10" height="10"/><rect class="cls-3" x="244.79" y="146.61" width="10" height="10"/><rect class="cls-3" x="244.79" y="170.61" width="10" height="10"/><rect class="cls-3" x="232.79" y="170.61" width="10" height="10"/><rect class="cls-3" x="328.79" y="182.61" width="10" height="10"/><rect class="cls-3" x="328.79" y="170.61" width="10" height="10"/><rect class="cls-3" x="340.79" y="170.61" width="10" height="10"/><rect class="cls-3" x="280.79" y="218.61" width="10" height="10"/><rect class="cls-3" x="280.79" y="206.61" width="10" height="10"/><rect class="cls-3" x="292.79" y="218.61" width="10" height="10"/><rect class="cls-3" x="304.79" y="212.61" width="10" height="10"/><rect class="cls-3" x="316.79" y="208.61" width="10" height="10"/><rect class="cls-3" x="328.79" y="208.61" width="10" height="10"/><rect class="cls-3" x="340.79" y="208.61" width="10" height="10"/><rect class="cls-3" x="351.79" y="221.61" width="10" height="10"/><rect class="cls-3" x="351.79" y="196.61" width="10" height="10"/><rect class="cls-3" x="364.79" y="207.61" width="10" height="10"/><rect class="cls-3" x="292.79" y="206.61" width="10" height="10"/><rect class="cls-3" x="256.79" y="194.61" width="10" height="10"/><rect class="cls-3" x="244.79" y="194.61" width="10" height="10"/><rect class="cls-3" x="196.79" y="197.61" width="10" height="10"/><rect class="cls-3" x="196.79" y="185.61" width="10" height="10"/><rect class="cls-3" x="208.79" y="173.61" width="10" height="10"/><rect class="cls-3" x="196.79" y="173.61" width="10" height="10"/><rect class="cls-3" x="196.79" y="161.61" width="10" height="10"/><rect class="cls-3" x="196.79" y="149.61" width="10" height="10"/><rect class="cls-3" x="184.79" y="137.61" width="10" height="10"/><rect class="cls-3" x="208.79" y="149.61" width="10" height="10"/><rect class="cls-3" x="220.79" y="161.61" width="10" height="10"/><rect class="cls-3" x="184.79" y="161.61" width="10" height="10"/><rect class="cls-3" x="184.79" y="185.61" width="10" height="10"/><rect class="cls-3" x="172.79" y="196.61" width="10" height="10"/><rect class="cls-3" x="160.79" y="196.61" width="10" height="10"/><rect class="cls-3" x="220.79" y="218.61" width="10" height="10"/><rect class="cls-3" x="208.79" y="230.61" width="10" height="10"/><rect class="cls-3" x="196.79" y="230.61" width="10" height="10"/><rect class="cls-3" x="184.79" y="230.61" width="10" height="10"/><rect class="cls-3" x="172.79" y="230.61" width="10" height="10"/><rect class="cls-3" x="160.79" y="230.61" width="10" height="10"/><rect class="cls-3" x="148.79" y="221.61" width="10" height="10"/><rect class="cls-3" x="136.79" y="230.61" width="10" height="10"/><rect class="cls-3" x="136.79" y="213.61" width="10" height="10"/><rect class="cls-3" x="208.79" y="218.61" width="10" height="10"/><rect class="cls-3" x="196.79" y="218.61" width="10" height="10"/><rect class="cls-3" x="184.79" y="218.61" width="10" height="10"/><rect class="cls-3" x="172.79" y="213.61" width="10" height="10"/><rect class="cls-3" x="160.79" y="213.61" width="10" height="10"/><rect class="cls-3" x="268.79" y="218.61" width="10" height="10"/><rect class="cls-3" x="256.79" y="218.61" width="10" height="10"/><rect class="cls-3" x="244.79" y="218.61" width="10" height="10"/><path class="cls-3" d="M126.69,315.15l16.55,35.06h-7.75l-10-21.31-10.85,21.31h-7.85l17.85-35.06Z"/><path class="cls-3" d="M156.14,315.15a17.23,17.23,0,0,1,12.35,5.1,17.5,17.5,0,0,1,3.75,19.26,16,16,0,0,1-3.75,5.55,17.55,17.55,0,0,1-12.35,5.15h-7v0h-2.85v-35Zm0,28.06a10.53,10.53,0,0,0,0-21.06h-2.9v21.06Z"/><path class="cls-3" d="M194.54,315.15l16.55,35.06h-7.75l-10-21.31-10.85,21.31h-7.85l17.85-35.06Z"/><path class="cls-3" d="M241.29,350.21l-19.7-20.45v20.45h-7V315.15h2.2l19.35,19.61V315.15h7v35.06Z"/><path class="cls-3" d="M260.79,335.36a16.76,16.76,0,0,1-5.3-2.2,9.63,9.63,0,0,1-4.5-7.9,9.39,9.39,0,0,1,2.55-7.16,12.16,12.16,0,0,1,8.15-3.45c5.1,0,7.95,1.85,10.5,3.5l1.15.75-3.65,6-1.25-.79c-2.25-1.46-3.7-2.41-6.75-2.41a5.34,5.34,0,0,0-3.1,1.3,2.5,2.5,0,0,0-.6,2c.05,1.81,1.3,2.81,4.5,3.61.4.09.7.2,1,.29a18.64,18.64,0,0,1,7.75,4.66,10.13,10.13,0,0,1,2.75,6.85,10.9,10.9,0,0,1-10.85,10.55,20.75,20.75,0,0,1-6.15-.85,19.38,19.38,0,0,1-8.35-5.3l5.1-4.8a12.11,12.11,0,0,0,9.4,4,3.85,3.85,0,0,0,3.85-3.55c0-1.9-2.15-3.65-5.8-4.9l-.15,0Z"/><path class="cls-3" d="M315.29,332.66a18.15,18.15,0,1,1-18.15-18.16A18.18,18.18,0,0,1,315.29,332.66Zm-29.1,0a11,11,0,1,0,10.95-11A10.95,10.95,0,0,0,286.19,332.66Z"/><path class="cls-3" d="M348,350.21l-19.7-20.45v20.45h-7V315.15h2.2l19.35,19.61V315.15h7v35.06Z"/><path class="cls-3" d="M356.34,350.16v-35h7v35Z"/><path class="cls-3" d="M388.24,315.15l16.55,35.06H397L387,328.9l-10.85,21.31h-7.85l17.85-35.06Z"/><path class="cls-3" d="M152.54,362.88H158a7.94,7.94,0,0,1,3.72.84,6.21,6.21,0,0,1,2.51,2.36,7.13,7.13,0,0,1,0,6.9,6.19,6.19,0,0,1-2.51,2.35,7.82,7.82,0,0,1-3.72.85h-5.42ZM157.88,375a6.46,6.46,0,0,0,3.06-.69,5,5,0,0,0,2-1.92,5.81,5.81,0,0,0,0-5.64,5,5,0,0,0-2-1.92,6.46,6.46,0,0,0-3.06-.7H154V375Z"/><path class="cls-3" d="M182.09,372.63h-7.41l-1.6,3.55h-1.46l6.08-13.3h1.39l6.08,13.3h-1.49Zm-.51-1.14-3.2-7.15-3.19,7.15Z"/><path class="cls-3" d="M195,364.09h-4.67v-1.21h10.75v1.21h-4.68v12.09H195Z"/><path class="cls-3" d="M216.69,372.63h-7.41l-1.6,3.55h-1.46l6.08-13.3h1.39l6.08,13.3h-1.49Zm-.52-1.14L213,364.34l-3.19,7.15Z"/><path class="cls-3" d="M240.56,375.42a6.37,6.37,0,0,1-2.49-2.42,7.14,7.14,0,0,1,0-6.94,6.39,6.39,0,0,1,2.5-2.42,7.32,7.32,0,0,1,3.57-.88,7.42,7.42,0,0,1,2.74.5A5.83,5.83,0,0,1,249,364.7l-.9.9a5.31,5.31,0,0,0-3.93-1.58,5.8,5.8,0,0,0-2.87.72,5.2,5.2,0,0,0-2,2,5.77,5.77,0,0,0,0,5.62,5.2,5.2,0,0,0,2,2,5.8,5.8,0,0,0,2.87.72,5.19,5.19,0,0,0,3.93-1.6l.9.9a5.93,5.93,0,0,1-2.14,1.45,7.76,7.76,0,0,1-6.31-.37Z"/><path class="cls-3" d="M259.66,375.41a6.49,6.49,0,0,1-2.51-2.42,7,7,0,0,1,0-6.92,6.49,6.49,0,0,1,2.51-2.42,7.64,7.64,0,0,1,7.14,0,6.46,6.46,0,0,1,2.5,2.42,7.07,7.07,0,0,1,0,6.94,6.46,6.46,0,0,1-2.5,2.42,7.72,7.72,0,0,1-7.14,0Zm6.43-1.08a5.19,5.19,0,0,0,2-2,5.88,5.88,0,0,0,0-5.64,5.19,5.19,0,0,0-2-2,6.1,6.1,0,0,0-5.71,0,5.26,5.26,0,0,0-2,2,5.81,5.81,0,0,0,0,5.64,5.26,5.26,0,0,0,2,2,6.1,6.1,0,0,0,5.71,0Z"/><path class="cls-3" d="M279.06,362.88h1.41V375h7.45v1.22h-8.86Z"/><path class="cls-3" d="M296,362.88h1.41V375h7.45v1.22H296Z"/><path class="cls-3" d="M322.25,375v1.22h-9.4v-13.3H322v1.21h-7.72v4.74h6.88V370h-6.88V375Z"/><path class="cls-3" d="M333.39,375.42a6.41,6.41,0,0,1-2.48-2.42,7.07,7.07,0,0,1,0-6.94,6.37,6.37,0,0,1,2.49-2.42,7.71,7.71,0,0,1,6.31-.38,5.66,5.66,0,0,1,2.13,1.44l-.89.9A5.31,5.31,0,0,0,337,364a5.82,5.82,0,0,0-2.87.72,5.26,5.26,0,0,0-2,2,5.77,5.77,0,0,0,0,5.62,5.26,5.26,0,0,0,2,2A5.82,5.82,0,0,0,337,375a5.22,5.22,0,0,0,3.94-1.6l.89.9a5.84,5.84,0,0,1-2.14,1.45,7.76,7.76,0,0,1-6.31-.37Z"/><path class="cls-3" d="M353,364.09h-4.67v-1.21H359v1.21h-4.67v12.09H353Z"/></svg>