<svg id="Layer_1" data-name="Layer 1" xmlns="http://www.w3.org/2000/svg" xmlns:xlink="http://www.w3.org/1999/xlink" viewBox="0 0 512 512"><defs><style>.cls-1{fill:url(#linear-gradient);}.cls-2{fill:#fff;}.cls-3{fill:#f9f9f9;}</style><linearGradient id="linear-gradient" x1="80" y1="256" x2="432" y2="256" gradientUnits="userSpaceOnUse"><stop offset="0.23" stop-color="#1394e7"/><stop offset="1" stop-color="#000046"/></linearGradient></defs><circle class="cls-1" cx="256" cy="256" r="176"/><rect class="cls-2" x="269" y="266.54" width="10" height="10"/><rect class="cls-2" x="257" y="266.54" width="10" height="10"/><rect class="cls-2" x="245" y="266.54" width="10" height="10"/><rect class="cls-2" x="269" y="254.54" width="10" height="10"/><rect class="cls-2" x="257" y="254.54" width="10" height="10"/><rect class="cls-2" x="245" y="254.54" width="10" height="10"/><rect class="cls-2" x="269" y="242.54" width="10" height="10"/><rect class="cls-2" x="257" y="242.54" width="10" height="10"/><rect class="cls-2" x="245" y="242.54" width="10" height="10"/><rect class="cls-2" x="269" y="302.54" width="10" height="10"/><rect class="cls-2" x="257" y="302.54" width="10" height="10"/><rect class="cls-2" x="245" y="302.54" width="10" height="10"/><rect class="cls-2" x="269" y="290.54" width="10" height="10"/><rect class="cls-2" x="257" y="290.54" width="10" height="10"/><rect class="cls-2" x="245" y="290.54" width="10" height="10"/><rect class="cls-2" x="269" y="278.54" width="10" height="10"/><rect class="cls-2" x="257" y="278.54" width="10" height="10"/><rect class="cls-2" x="245" y="278.54" width="10" height="10"/><rect class="cls-2" x="233" y="266.54" width="10" height="10"/><rect class="cls-2" x="233" y="254.54" width="10" height="10"/><rect class="cls-2" x="233" y="302.54" width="10" height="10"/><rect class="cls-2" x="233" y="290.54" width="10" height="10"/><rect class="cls-2" x="233" y="278.54" width="10" height="10"/><rect class="cls-2" x="233" y="242.54" width="10" height="10"/><rect class="cls-2" x="221" y="242.54" width="10" height="10"/><rect class="cls-2" x="233" y="230.54" width="10" height="10"/><rect class="cls-2" x="233" y="218.54" width="10" height="10"/><rect class="cls-2" x="221" y="197.54" width="10" height="10"/><rect class="cls-2" x="233" y="206.54" width="10" height="10"/><rect class="cls-2" x="221" y="218.54" width="10" height="10"/><rect class="cls-2" x="209" y="218.54" width="10" height="10"/><rect class="cls-2" x="269" y="218.54" width="10" height="10"/><rect class="cls-2" x="257" y="218.54" width="10" height="10"/><rect class="cls-2" x="245" y="218.54" width="10" height="10"/><rect class="cls-2" x="269" y="206.54" width="10" height="10"/><rect class="cls-2" x="281" y="206.54" width="10" height="10"/><rect class="cls-2" x="293" y="206.54" width="10" height="10"/><rect class="cls-2" x="305" y="206.54" width="10" height="10"/><rect class="cls-2" x="317" y="206.54" width="10" height="10"/><rect class="cls-2" x="317" y="194.54" width="10" height="10"/><rect class="cls-2" x="293" y="194.54" width="10" height="10"/><rect class="cls-2" x="281" y="194.54" width="10" height="10"/><rect class="cls-2" x="281" y="182.54" width="10" height="10"/><rect class="cls-2" x="293" y="182.54" width="10" height="10"/><rect class="cls-2" x="293" y="170.54" width="10" height="10"/><rect class="cls-2" x="305" y="170.54" width="10" height="10"/><rect class="cls-2" x="317" y="158.54" width="10" height="10"/><rect class="cls-2" x="269" y="194.54" width="10" height="10"/><rect class="cls-2" x="257" y="194.54" width="10" height="10"/><rect class="cls-2" x="269" y="182.54" width="10" height="10"/><rect class="cls-2" x="257" y="182.54" width="10" height="10"/><rect class="cls-2" x="257" y="170.54" width="10" height="10"/><rect class="cls-2" x="257" y="158.54" width="10" height="10"/><rect class="cls-2" x="269" y="158.54" width="10" height="10"/><rect class="cls-2" x="269" y="170.54" width="10" height="10"/><rect class="cls-2" x="280" y="146.54" width="10" height="10"/><rect class="cls-2" x="257" y="146.54" width="10" height="10"/><rect class="cls-2" x="245" y="158.54" width="10" height="10"/><rect class="cls-2" x="245" y="182.54" width="10" height="10"/><rect class="cls-2" x="233" y="182.54" width="10" height="10"/><rect class="cls-2" x="329" y="194.54" width="10" height="10"/><rect class="cls-2" x="329" y="182.54" width="10" height="10"/><rect class="cls-2" x="341" y="182.54" width="10" height="10"/><rect class="cls-2" x="281" y="230.54" width="10" height="10"/><rect class="cls-2" x="281" y="218.54" width="10" height="10"/><rect class="cls-2" x="293" y="230.54" width="10" height="10"/><rect class="cls-2" x="305" y="224.54" width="10" height="10"/><rect class="cls-2" x="317" y="220.54" width="10" height="10"/><rect class="cls-2" x="329" y="220.54" width="10" height="10"/><rect class="cls-2" x="341" y="220.54" width="10" height="10"/><rect class="cls-2" x="352" y="233.54" width="10" height="10"/><rect class="cls-2" x="352" y="208.54" width="10" height="10"/><rect class="cls-2" x="365" y="219.54" width="10" height="10"/><rect class="cls-2" x="293" y="218.54" width="10" height="10"/><rect class="cls-2" x="257" y="206.54" width="10" height="10"/><rect class="cls-2" x="245" y="206.54" width="10" height="10"/><rect class="cls-2" x="197" y="209.54" width="10" height="10"/><rect class="cls-2" x="197" y="197.54" width="10" height="10"/><rect class="cls-2" x="209" y="185.54" width="10" height="10"/><rect class="cls-2" x="197" y="185.54" width="10" height="10"/><rect class="cls-2" x="197" y="173.54" width="10" height="10"/><rect class="cls-2" x="197" y="161.54" width="10" height="10"/><rect class="cls-2" x="185" y="149.54" width="10" height="10"/><rect class="cls-2" x="209" y="161.54" width="10" height="10"/><rect class="cls-2" x="221" y="173.54" width="10" height="10"/><rect class="cls-2" x="185" y="173.54" width="10" height="10"/><rect class="cls-2" x="185" y="197.54" width="10" height="10"/><rect class="cls-2" x="173" y="208.54" width="10" height="10"/><rect class="cls-2" x="161" y="208.54" width="10" height="10"/><rect class="cls-2" x="221" y="230.54" width="10" height="10"/><rect class="cls-2" x="209" y="242.54" width="10" height="10"/><rect class="cls-2" x="197" y="242.54" width="10" height="10"/><rect class="cls-2" x="185" y="242.54" width="10" height="10"/><rect class="cls-2" x="173" y="242.54" width="10" height="10"/><rect class="cls-2" x="161" y="242.54" width="10" height="10"/><rect class="cls-2" x="149" y="233.54" width="10" height="10"/><rect class="cls-2" x="137" y="242.54" width="10" height="10"/><rect class="cls-2" x="137" y="225.54" width="10" height="10"/><rect class="cls-2" x="209" y="230.54" width="10" height="10"/><rect class="cls-2" x="197" y="230.54" width="10" height="10"/><rect class="cls-2" x="185" y="230.54" width="10" height="10"/><rect class="cls-2" x="173" y="225.54" width="10" height="10"/><rect class="cls-2" x="161" y="225.54" width="10" height="10"/><rect class="cls-2" x="269" y="230.54" width="10" height="10"/><rect class="cls-2" x="257" y="230.54" width="10" height="10"/><rect class="cls-2" x="245" y="230.54" width="10" height="10"/><path class="cls-3" d="M175.86,327.51l10.28,21.76h-4.81l-6.21-13.22-6.74,13.22h-4.87l11.08-21.76Z"/><path class="cls-3" d="M194.14,327.51a10.85,10.85,0,0,1,4.22.84,10.73,10.73,0,0,1,3.45,2.33,10.3,10.3,0,0,1,2.33,3.47,10.77,10.77,0,0,1,0,8.48,9.9,9.9,0,0,1-2.33,3.44,10.91,10.91,0,0,1-7.67,3.2h-4.37v0H188V327.51Zm0,17.41a6.53,6.53,0,0,0,0-13.06h-1.8v13.06Z"/><path class="cls-3" d="M218,327.51l10.27,21.76h-4.81l-6.2-13.22-6.74,13.22h-4.87l11.08-21.76Z"/><path class="cls-3" d="M247,349.27l-12.23-12.7v12.7h-4.34V327.51h1.36l12,12.17V327.51h4.35v21.76Z"/><path class="cls-3" d="M259.1,340.05a10.68,10.68,0,0,1-3.29-1.36,6,6,0,0,1-2.79-4.91,5.86,5.86,0,0,1,1.58-4.44,7.58,7.58,0,0,1,5.06-2.14,10.81,10.81,0,0,1,6.52,2.17l.71.47-2.26,3.69-.78-.49a6.66,6.66,0,0,0-4.19-1.49,3.29,3.29,0,0,0-1.92.8,1.5,1.5,0,0,0-.37,1.24c0,1.12.8,1.74,2.79,2.24a5.15,5.15,0,0,1,.62.19,11.47,11.47,0,0,1,4.81,2.88,6.27,6.27,0,0,1,1.71,4.25,6.76,6.76,0,0,1-6.74,6.55,13.07,13.07,0,0,1-3.82-.52,12.07,12.07,0,0,1-5.18-3.29l3.17-3a7.51,7.51,0,0,0,5.83,2.45,2.39,2.39,0,0,0,2.39-2.21c0-1.18-1.33-2.26-3.6-3l-.09,0Z"/><path class="cls-3" d="M292.93,338.37a11.27,11.27,0,1,1-11.26-11.26A11.28,11.28,0,0,1,292.93,338.37Zm-18.06,0a6.8,6.8,0,1,0,6.8-6.79A6.79,6.79,0,0,0,274.87,338.37Z"/><path class="cls-3" d="M313.23,349.27,301,336.57v12.7h-4.34V327.51H298l12,12.17V327.51h4.34v21.76Z"/><path class="cls-3" d="M318.41,349.24V327.51h4.35v21.73Z"/><path class="cls-3" d="M338.22,327.51l10.27,21.76h-4.81l-6.21-13.22-6.73,13.22h-4.88l11.08-21.76Z"/><path class="cls-3" d="M191.91,357.14h3.36a4.86,4.86,0,0,1,2.31.52,3.86,3.86,0,0,1,1.56,1.46,4.37,4.37,0,0,1,0,4.28,3.82,3.82,0,0,1-1.56,1.47,4.86,4.86,0,0,1-2.31.52h-3.36Zm3.32,7.5a4.05,4.05,0,0,0,1.89-.43,3.13,3.13,0,0,0,1.27-1.2,3.7,3.7,0,0,0,0-3.5,3.11,3.11,0,0,0-1.27-1.19,3.93,3.93,0,0,0-1.89-.43h-2.45v6.75Z"/><path class="cls-3" d="M210.25,363.19h-4.6l-1,2.2h-.91l3.78-8.25h.86l3.77,8.25h-.92Zm-.32-.71L208,358l-2,4.44Z"/><path class="cls-3" d="M218.26,357.89h-2.9v-.75H222v.75h-2.9v7.5h-.87Z"/><path class="cls-3" d="M231.73,363.19h-4.6l-1,2.2h-.91l3.77-8.25h.86l3.78,8.25h-.92Zm-.32-.71-2-4.44-2,4.44Z"/><path class="cls-3" d="M246.55,364.92a4,4,0,0,1-1.55-1.5,4.43,4.43,0,0,1,0-4.31,4,4,0,0,1,1.55-1.5,4.57,4.57,0,0,1,2.22-.55,4.71,4.71,0,0,1,1.7.31,3.49,3.49,0,0,1,1.32.9l-.55.55a3.32,3.32,0,0,0-2.45-1,3.59,3.59,0,0,0-1.78.45,3.28,3.28,0,0,0-1.25,1.23,3.54,3.54,0,0,0,0,3.49,3.28,3.28,0,0,0,1.25,1.23,3.7,3.7,0,0,0,1.78.44,3.27,3.27,0,0,0,2.45-1l.55.56a3.56,3.56,0,0,1-1.33.9,4.8,4.8,0,0,1-3.91-.23Z"/><path class="cls-3" d="M258.4,364.91a4,4,0,0,1-1.56-1.5,4.39,4.39,0,0,1,0-4.29,4.11,4.11,0,0,1,1.56-1.51,4.59,4.59,0,0,1,2.22-.55,4.5,4.5,0,0,1,2.21.55,4,4,0,0,1,1.56,1.5,4.43,4.43,0,0,1,0,4.31,4,4,0,0,1-1.56,1.5,4.77,4.77,0,0,1-4.43,0Zm4-.67a3.12,3.12,0,0,0,1.24-1.23,3.63,3.63,0,0,0,0-3.5,3.16,3.16,0,0,0-1.24-1.22,3.48,3.48,0,0,0-1.77-.45,3.53,3.53,0,0,0-1.77.45,3.19,3.19,0,0,0-1.25,1.22,3.56,3.56,0,0,0,0,3.5,3.15,3.15,0,0,0,1.25,1.23,3.52,3.52,0,0,0,1.77.44A3.47,3.47,0,0,0,262.39,364.24Z"/><path class="cls-3" d="M270.45,357.14h.87v7.5h4.62v.75h-5.49Z"/><path class="cls-3" d="M280.93,357.14h.87v7.5h4.63v.75h-5.5Z"/><path class="cls-3" d="M297.25,364.64v.75h-5.83v-8.25h5.66v.75h-4.79v2.94h4.27v.74h-4.27v3.07Z"/><path class="cls-3" d="M304.17,364.92a4,4,0,0,1-1.54-1.5,4.43,4.43,0,0,1,0-4.31,3.92,3.92,0,0,1,1.55-1.5,4.57,4.57,0,0,1,2.22-.55,4.66,4.66,0,0,1,1.69.31,3.49,3.49,0,0,1,1.32.9l-.55.55a3.29,3.29,0,0,0-2.44-1,3.57,3.57,0,0,0-1.78.45,3.24,3.24,0,0,0-1.26,1.23,3.61,3.61,0,0,0,0,3.49,3.24,3.24,0,0,0,1.26,1.23,3.67,3.67,0,0,0,1.78.44,3.25,3.25,0,0,0,2.44-1l.55.56a3.61,3.61,0,0,1-1.32.9,4.83,4.83,0,0,1-3.92-.23Z"/><path class="cls-3" d="M316.31,357.89h-2.9v-.75h6.68v.75h-2.9v7.5h-.88Z"/></svg>