<svg id="Layer_1" data-name="Layer 1" xmlns="http://www.w3.org/2000/svg" viewBox="0 0 512 512"><defs><style>.cls-1{fill:#fff;}.cls-2{fill:#0677b5;}</style></defs><g id="mask-2"><rect id="path-1" class="cls-1" x="-0.33" y="-0.33" width="512.67" height="512.67"/></g><rect class="cls-1" x="-0.25" y="-0.25" width="512" height="512"/><rect class="cls-2" x="276.87" y="315.39" width="16.05" height="16.05"/><rect class="cls-2" x="257.61" y="315.39" width="16.05" height="16.05"/><rect class="cls-2" x="238.34" y="315.39" width="16.05" height="16.05"/><rect class="cls-2" x="276.87" y="296.13" width="16.05" height="16.05"/><rect class="cls-2" x="257.61" y="296.13" width="16.05" height="16.05"/><rect class="cls-2" x="238.34" y="296.13" width="16.05" height="16.05"/><rect class="cls-2" x="276.87" y="276.87" width="16.05" height="16.05"/><rect class="cls-2" x="257.61" y="276.87" width="16.05" height="16.05"/><rect class="cls-2" x="238.34" y="276.87" width="16.05" height="16.05"/><rect class="cls-2" x="276.87" y="373.17" width="16.05" height="16.05"/><rect class="cls-2" x="257.61" y="373.17" width="16.05" height="16.05"/><rect class="cls-2" x="238.34" y="373.17" width="16.05" height="16.05"/><rect class="cls-2" x="276.87" y="353.91" width="16.05" height="16.05"/><rect class="cls-2" x="257.61" y="353.91" width="16.05" height="16.05"/><rect class="cls-2" x="238.34" y="353.91" width="16.05" height="16.05"/><rect class="cls-2" x="276.87" y="334.65" width="16.05" height="16.05"/><rect class="cls-2" x="257.61" y="334.65" width="16.05" height="16.05"/><rect class="cls-2" x="238.34" y="334.65" width="16.05" height="16.05"/><rect class="cls-2" x="219.08" y="315.39" width="16.05" height="16.05"/><rect class="cls-2" x="219.08" y="296.13" width="16.05" height="16.05"/><rect class="cls-2" x="219.08" y="373.17" width="16.05" height="16.05"/><rect class="cls-2" x="219.08" y="353.91" width="16.05" height="16.05"/><rect class="cls-2" x="219.08" y="334.65" width="16.05" height="16.05"/><rect class="cls-2" x="219.08" y="276.87" width="16.05" height="16.05"/><rect class="cls-2" x="199.82" y="276.87" width="16.05" height="16.05"/><rect class="cls-2" x="219.08" y="257.61" width="16.05" height="16.05"/><rect class="cls-2" x="219.08" y="238.34" width="16.05" height="16.05"/><rect class="cls-2" x="199.82" y="204.64" width="16.05" height="16.05"/><rect class="cls-2" x="219.08" y="219.08" width="16.05" height="16.05"/><rect class="cls-2" x="199.82" y="238.34" width="16.05" height="16.05"/><rect class="cls-2" x="180.56" y="238.34" width="16.05" height="16.05"/><rect class="cls-2" x="276.87" y="238.34" width="16.05" height="16.05"/><rect class="cls-2" x="257.61" y="238.34" width="16.05" height="16.05"/><rect class="cls-2" x="238.34" y="238.34" width="16.05" height="16.05"/><rect class="cls-2" x="276.87" y="219.08" width="16.05" height="16.05"/><rect class="cls-2" x="296.13" y="219.08" width="16.05" height="16.05"/><rect class="cls-2" x="315.39" y="219.08" width="16.05" height="16.05"/><rect class="cls-2" x="334.65" y="219.08" width="16.05" height="16.05"/><rect class="cls-2" x="353.91" y="219.08" width="16.05" height="16.05"/><rect class="cls-2" x="353.91" y="199.82" width="16.05" height="16.05"/><rect class="cls-2" x="315.39" y="199.82" width="16.05" height="16.05"/><rect class="cls-2" x="296.13" y="199.82" width="16.05" height="16.05"/><rect class="cls-2" x="296.13" y="180.56" width="16.05" height="16.05"/><rect class="cls-2" x="315.39" y="180.56" width="16.05" height="16.05"/><rect class="cls-2" x="315.39" y="161.3" width="16.05" height="16.05"/><rect class="cls-2" x="334.65" y="161.3" width="16.05" height="16.05"/><rect class="cls-2" x="353.91" y="142.04" width="16.05" height="16.05"/><rect class="cls-2" x="276.87" y="199.82" width="16.05" height="16.05"/><rect class="cls-2" x="257.61" y="199.82" width="16.05" height="16.05"/><rect class="cls-2" x="276.87" y="180.56" width="16.05" height="16.05"/><rect class="cls-2" x="257.61" y="180.56" width="16.05" height="16.05"/><rect class="cls-2" x="257.61" y="161.3" width="16.05" height="16.05"/><rect class="cls-2" x="257.61" y="142.04" width="16.05" height="16.05"/><rect class="cls-2" x="276.87" y="142.04" width="16.05" height="16.05"/><rect class="cls-2" x="276.87" y="161.3" width="16.05" height="16.05"/><rect class="cls-2" x="294.52" y="122.78" width="16.05" height="16.05"/><rect class="cls-2" x="257.61" y="122.78" width="16.05" height="16.05"/><rect class="cls-2" x="238.34" y="142.04" width="16.05" height="16.05"/><rect class="cls-2" x="238.34" y="180.56" width="16.05" height="16.05"/><rect class="cls-2" x="219.08" y="180.56" width="16.05" height="16.05"/><rect class="cls-2" x="373.17" y="199.82" width="16.05" height="16.05"/><rect class="cls-2" x="373.17" y="180.56" width="16.05" height="16.05"/><rect class="cls-2" x="392.43" y="180.56" width="16.05" height="16.05"/><rect class="cls-2" x="296.13" y="257.61" width="16.05" height="16.05"/><rect class="cls-2" x="296.13" y="238.34" width="16.05" height="16.05"/><rect class="cls-2" x="315.39" y="257.61" width="16.05" height="16.05"/><rect class="cls-2" x="334.65" y="247.97" width="16.05" height="16.05"/><rect class="cls-2" x="353.91" y="241.55" width="16.05" height="16.05"/><rect class="cls-2" x="373.17" y="241.55" width="16.05" height="16.05"/><rect class="cls-2" x="392.43" y="241.55" width="16.05" height="16.05"/><rect class="cls-2" x="410.08" y="262.42" width="16.05" height="16.05"/><rect class="cls-2" x="410.08" y="222.29" width="16.05" height="16.05"/><rect class="cls-2" x="430.95" y="239.95" width="16.05" height="16.05"/><rect class="cls-2" x="315.39" y="238.34" width="16.05" height="16.05"/><rect class="cls-2" x="257.61" y="219.08" width="16.05" height="16.05"/><rect class="cls-2" x="238.34" y="219.08" width="16.05" height="16.05"/><rect class="cls-2" x="161.3" y="223.9" width="16.05" height="16.05"/><rect class="cls-2" x="161.3" y="204.64" width="16.05" height="16.05"/><rect class="cls-2" x="180.56" y="185.38" width="16.05" height="16.05"/><rect class="cls-2" x="161.3" y="185.38" width="16.05" height="16.05"/><rect class="cls-2" x="161.3" y="166.12" width="16.05" height="16.05"/><rect class="cls-2" x="161.3" y="146.86" width="16.05" height="16.05"/><rect class="cls-2" x="142.04" y="127.6" width="16.05" height="16.05"/><rect class="cls-2" x="180.56" y="146.86" width="16.05" height="16.05"/><rect class="cls-2" x="199.82" y="166.12" width="16.05" height="16.05"/><rect class="cls-2" x="142.04" y="166.12" width="16.05" height="16.05"/><rect class="cls-2" x="142.04" y="204.64" width="16.05" height="16.05"/><rect class="cls-2" x="122.78" y="222.29" width="16.05" height="16.05"/><rect class="cls-2" x="103.52" y="222.29" width="16.05" height="16.05"/><rect class="cls-2" x="199.82" y="257.61" width="16.05" height="16.05"/><rect class="cls-2" x="180.56" y="276.87" width="16.05" height="16.05"/><rect class="cls-2" x="161.3" y="276.87" width="16.05" height="16.05"/><rect class="cls-2" x="142.04" y="276.87" width="16.05" height="16.05"/><rect class="cls-2" x="122.78" y="276.87" width="16.05" height="16.05"/><rect class="cls-2" x="103.52" y="276.87" width="16.05" height="16.05"/><rect class="cls-2" x="84.26" y="262.42" width="16.05" height="16.05"/><rect class="cls-2" x="65" y="276.87" width="16.05" height="16.05"/><rect class="cls-2" x="65" y="249.58" width="16.05" height="16.05"/><rect class="cls-2" x="180.56" y="257.61" width="16.05" height="16.05"/><rect class="cls-2" x="161.3" y="257.61" width="16.05" height="16.05"/><rect class="cls-2" x="142.04" y="257.61" width="16.05" height="16.05"/><rect class="cls-2" x="122.78" y="249.58" width="16.05" height="16.05"/><rect class="cls-2" x="103.52" y="249.58" width="16.05" height="16.05"/><rect class="cls-2" x="276.87" y="257.61" width="16.05" height="16.05"/><rect class="cls-2" x="257.61" y="257.61" width="16.05" height="16.05"/><rect class="cls-2" x="238.34" y="257.61" width="16.05" height="16.05"/></svg>