<?xml version="1.0" encoding="UTF-8" standalone="no"?>
<!-- Created with Inkscape (http://www.inkscape.org/) -->

<svg
   version="1.1"
   id="svg4161"
   width="2560"
   height="1440"
   viewBox="0 0 2560 1440"
   sodipodi:docname="Adansonia Black.svg"
   inkscape:version="1.2.1 (9c6d41e410, 2022-07-14)"
   xmlns:inkscape="http://www.inkscape.org/namespaces/inkscape"
   xmlns:sodipodi="http://sodipodi.sourceforge.net/DTD/sodipodi-0.dtd"
   xmlns="http://www.w3.org/2000/svg"
   xmlns:svg="http://www.w3.org/2000/svg">
  <defs
     id="defs4165">
    <clipPath
       clipPathUnits="userSpaceOnUse"
       id="clipPath4393">
      <path
         d="M 0,1080 H 1920 V 0 H 0 Z"
         id="path4391" />
    </clipPath>
  </defs>
  <sodipodi:namedview
     id="namedview4163"
     pagecolor="#ffffff"
     bordercolor="#000000"
     borderopacity="0.25"
     inkscape:showpageshadow="2"
     inkscape:pageopacity="0.0"
     inkscape:pagecheckerboard="0"
     inkscape:deskcolor="#d1d1d1"
     showgrid="false"
     inkscape:zoom="0.48710938"
     inkscape:cx="1278.9735"
     inkscape:cy="720.57739"
     inkscape:window-width="1920"
     inkscape:window-height="1017"
     inkscape:window-x="-8"
     inkscape:window-y="-8"
     inkscape:window-maximized="1"
     inkscape:current-layer="g4169">
    <inkscape:page
       x="0"
       y="0"
       id="page4167"
       width="2560"
       height="1440" />
  </sodipodi:namedview>
  <g
     id="g4169"
     inkscape:groupmode="layer"
     inkscape:label="Page 1"
     transform="matrix(1.3333333,0,0,-1.3333333,0,1440)">
    <path
       d="m 1029.686,582.85 h -30.513 v -30.513 h 30.513 z"
       style="fill:#000000;fill-opacity:1;fill-rule:nonzero;stroke:none"
       id="path4171" />
    <path
       d="m 993.071,582.85 h -30.513 v -30.513 h 30.513 z"
       style="fill:#000000;fill-opacity:1;fill-rule:nonzero;stroke:none"
       id="path4173" />
    <path
       d="m 956.456,582.85 h -30.513 v -30.513 h 30.513 z"
       style="fill:#000000;fill-opacity:1;fill-rule:nonzero;stroke:none"
       id="path4175" />
    <path
       d="m 1029.686,619.465 h -30.513 v -30.513 h 30.513 z"
       style="fill:#000000;fill-opacity:1;fill-rule:nonzero;stroke:none"
       id="path4177" />
    <path
       d="m 993.071,619.465 h -30.513 v -30.513 h 30.513 z"
       style="fill:#000000;fill-opacity:1;fill-rule:nonzero;stroke:none"
       id="path4179" />
    <path
       d="m 956.456,619.465 h -30.513 v -30.513 h 30.513 z"
       style="fill:#000000;fill-opacity:1;fill-rule:nonzero;stroke:none"
       id="path4181" />
    <path
       d="m 1029.686,656.08 h -30.513 v -30.513 h 30.513 z"
       style="fill:#000000;fill-opacity:1;fill-rule:nonzero;stroke:none"
       id="path4183" />
    <path
       d="m 993.071,656.08 h -30.513 v -30.513 h 30.513 z"
       style="fill:#000000;fill-opacity:1;fill-rule:nonzero;stroke:none"
       id="path4185" />
    <path
       d="m 956.456,656.08 h -30.513 v -30.513 h 30.513 z"
       style="fill:#000000;fill-opacity:1;fill-rule:nonzero;stroke:none"
       id="path4187" />
    <path
       d="m 1029.686,473.004 h -30.513 v -30.513 h 30.513 z"
       style="fill:#000000;fill-opacity:1;fill-rule:nonzero;stroke:none"
       id="path4189" />
    <path
       d="m 993.071,473.004 h -30.513 v -30.513 h 30.513 z"
       style="fill:#000000;fill-opacity:1;fill-rule:nonzero;stroke:none"
       id="path4191" />
    <path
       d="m 956.456,473.004 h -30.513 v -30.513 h 30.513 z"
       style="fill:#000000;fill-opacity:1;fill-rule:nonzero;stroke:none"
       id="path4193" />
    <path
       d="m 1029.686,509.619 h -30.513 v -30.513 h 30.513 z"
       style="fill:#000000;fill-opacity:1;fill-rule:nonzero;stroke:none"
       id="path4195" />
    <path
       d="m 993.071,509.619 h -30.513 v -30.513 h 30.513 z"
       style="fill:#000000;fill-opacity:1;fill-rule:nonzero;stroke:none"
       id="path4197" />
    <path
       d="m 956.456,509.619 h -30.513 v -30.513 h 30.513 z"
       style="fill:#000000;fill-opacity:1;fill-rule:nonzero;stroke:none"
       id="path4199" />
    <path
       d="m 1029.686,546.234 h -30.513 v -30.513 h 30.513 z"
       style="fill:#000000;fill-opacity:1;fill-rule:nonzero;stroke:none"
       id="path4201" />
    <path
       d="m 993.071,546.234 h -30.513 v -30.513 h 30.513 z"
       style="fill:#000000;fill-opacity:1;fill-rule:nonzero;stroke:none"
       id="path4203" />
    <path
       d="m 956.456,546.234 h -30.513 v -30.513 h 30.513 z"
       style="fill:#000000;fill-opacity:1;fill-rule:nonzero;stroke:none"
       id="path4205" />
    <path
       d="m 919.841,582.85 h -30.513 v -30.513 h 30.513 z"
       style="fill:#000000;fill-opacity:1;fill-rule:nonzero;stroke:none"
       id="path4207" />
    <path
       d="m 919.841,619.465 h -30.513 v -30.513 h 30.513 z"
       style="fill:#000000;fill-opacity:1;fill-rule:nonzero;stroke:none"
       id="path4209" />
    <path
       d="m 919.841,473.004 h -30.513 v -30.513 h 30.513 z"
       style="fill:#000000;fill-opacity:1;fill-rule:nonzero;stroke:none"
       id="path4211" />
    <path
       d="m 919.841,509.619 h -30.513 v -30.513 h 30.513 z"
       style="fill:#000000;fill-opacity:1;fill-rule:nonzero;stroke:none"
       id="path4213" />
    <path
       d="m 919.841,546.234 h -30.513 v -30.513 h 30.513 z"
       style="fill:#000000;fill-opacity:1;fill-rule:nonzero;stroke:none"
       id="path4215" />
    <path
       d="m 919.841,656.08 h -30.513 v -30.513 h 30.513 z"
       style="fill:#000000;fill-opacity:1;fill-rule:nonzero;stroke:none"
       id="path4217" />
    <path
       d="m 883.226,656.08 h -30.513 v -30.513 h 30.513 z"
       style="fill:#000000;fill-opacity:1;fill-rule:nonzero;stroke:none"
       id="path4219" />
    <path
       d="m 919.841,692.695 h -30.513 v -30.513 h 30.513 z"
       style="fill:#000000;fill-opacity:1;fill-rule:nonzero;stroke:none"
       id="path4221" />
    <path
       d="m 919.841,729.31 h -30.513 v -30.513 h 30.513 z"
       style="fill:#000000;fill-opacity:1;fill-rule:nonzero;stroke:none"
       id="path4223" />
    <path
       d="m 883.226,793.386 h -30.513 v -30.513 h 30.513 z"
       style="fill:#000000;fill-opacity:1;fill-rule:nonzero;stroke:none"
       id="path4225" />
    <path
       d="m 919.841,765.925 h -30.513 v -30.513 h 30.513 z"
       style="fill:#000000;fill-opacity:1;fill-rule:nonzero;stroke:none"
       id="path4227" />
    <path
       d="m 883.226,729.31 h -30.513 v -30.513 h 30.513 z"
       style="fill:#000000;fill-opacity:1;fill-rule:nonzero;stroke:none"
       id="path4229" />
    <path
       d="m 846.611,729.31 h -30.513 v -30.513 h 30.513 z"
       style="fill:#000000;fill-opacity:1;fill-rule:nonzero;stroke:none"
       id="path4231" />
    <path
       d="m 1029.686,729.31 h -30.513 v -30.513 h 30.513 z"
       style="fill:#000000;fill-opacity:1;fill-rule:nonzero;stroke:none"
       id="path4233" />
    <path
       d="m 993.071,729.31 h -30.513 v -30.513 h 30.513 z"
       style="fill:#000000;fill-opacity:1;fill-rule:nonzero;stroke:none"
       id="path4235" />
    <path
       d="m 956.456,729.31 h -30.513 v -30.513 h 30.513 z"
       style="fill:#000000;fill-opacity:1;fill-rule:nonzero;stroke:none"
       id="path4237" />
    <path
       d="m 1029.686,765.925 h -30.513 v -30.513 h 30.513 z"
       style="fill:#000000;fill-opacity:1;fill-rule:nonzero;stroke:none"
       id="path4239" />
    <path
       d="m 1066.301,765.925 h -30.512 v -30.513 h 30.512 z"
       style="fill:#000000;fill-opacity:1;fill-rule:nonzero;stroke:none"
       id="path4241" />
    <path
       d="m 1102.916,765.925 h -30.513 v -30.513 h 30.513 z"
       style="fill:#000000;fill-opacity:1;fill-rule:nonzero;stroke:none"
       id="path4243" />
    <path
       d="m 1139.531,765.925 h -30.513 v -30.513 h 30.513 z"
       style="fill:#000000;fill-opacity:1;fill-rule:nonzero;stroke:none"
       id="path4245" />
    <path
       d="m 1176.146,765.925 h -30.513 v -30.513 h 30.513 z"
       style="fill:#000000;fill-opacity:1;fill-rule:nonzero;stroke:none"
       id="path4247" />
    <path
       d="m 1176.146,802.54 h -30.513 v -30.513 h 30.513 z"
       style="fill:#000000;fill-opacity:1;fill-rule:nonzero;stroke:none"
       id="path4249" />
    <path
       d="m 1102.916,802.54 h -30.513 v -30.513 h 30.513 z"
       style="fill:#000000;fill-opacity:1;fill-rule:nonzero;stroke:none"
       id="path4251" />
    <path
       d="m 1066.301,802.54 h -30.512 v -30.513 h 30.512 z"
       style="fill:#000000;fill-opacity:1;fill-rule:nonzero;stroke:none"
       id="path4253" />
    <path
       d="m 1066.301,839.155 h -30.512 v -30.513 h 30.512 z"
       style="fill:#000000;fill-opacity:1;fill-rule:nonzero;stroke:none"
       id="path4255" />
    <path
       d="m 1102.916,839.155 h -30.513 v -30.513 h 30.513 z"
       style="fill:#000000;fill-opacity:1;fill-rule:nonzero;stroke:none"
       id="path4257" />
    <path
       d="m 1102.916,875.77 h -30.513 v -30.513 h 30.513 z"
       style="fill:#000000;fill-opacity:1;fill-rule:nonzero;stroke:none"
       id="path4259" />
    <path
       d="m 1139.531,875.77 h -30.513 v -30.513 h 30.513 z"
       style="fill:#000000;fill-opacity:1;fill-rule:nonzero;stroke:none"
       id="path4261" />
    <path
       d="m 1176.146,912.385 h -30.513 v -30.513 h 30.513 z"
       style="fill:#000000;fill-opacity:1;fill-rule:nonzero;stroke:none"
       id="path4263" />
    <path
       d="m 1029.686,802.54 h -30.513 v -30.513 h 30.513 z"
       style="fill:#000000;fill-opacity:1;fill-rule:nonzero;stroke:none"
       id="path4265" />
    <path
       d="m 993.071,802.54 h -30.513 v -30.513 h 30.513 z"
       style="fill:#000000;fill-opacity:1;fill-rule:nonzero;stroke:none"
       id="path4267" />
    <path
       d="m 1029.686,839.155 h -30.513 v -30.513 h 30.513 z"
       style="fill:#000000;fill-opacity:1;fill-rule:nonzero;stroke:none"
       id="path4269" />
    <path
       d="m 993.071,839.155 h -30.513 v -30.513 h 30.513 z"
       style="fill:#000000;fill-opacity:1;fill-rule:nonzero;stroke:none"
       id="path4271" />
    <path
       d="m 993.071,875.77 h -30.513 v -30.513 h 30.513 z"
       style="fill:#000000;fill-opacity:1;fill-rule:nonzero;stroke:none"
       id="path4273" />
    <path
       d="m 993.071,912.385 h -30.513 v -30.513 h 30.513 z"
       style="fill:#000000;fill-opacity:1;fill-rule:nonzero;stroke:none"
       id="path4275" />
    <path
       d="m 1029.686,912.385 h -30.513 v -30.513 h 30.513 z"
       style="fill:#000000;fill-opacity:1;fill-rule:nonzero;stroke:none"
       id="path4277" />
    <path
       d="m 1029.686,875.77 h -30.513 v -30.513 h 30.513 z"
       style="fill:#000000;fill-opacity:1;fill-rule:nonzero;stroke:none"
       id="path4279" />
    <path
       d="m 1063.25,949 h -30.512 v -30.513 h 30.512 z"
       style="fill:#000000;fill-opacity:1;fill-rule:nonzero;stroke:none"
       id="path4281" />
    <path
       d="m 993.071,949 h -30.513 v -30.513 h 30.513 z"
       style="fill:#000000;fill-opacity:1;fill-rule:nonzero;stroke:none"
       id="path4283" />
    <path
       d="m 956.456,912.385 h -30.513 v -30.513 h 30.513 z"
       style="fill:#000000;fill-opacity:1;fill-rule:nonzero;stroke:none"
       id="path4285" />
    <path
       d="m 956.456,839.155 h -30.513 v -30.513 h 30.513 z"
       style="fill:#000000;fill-opacity:1;fill-rule:nonzero;stroke:none"
       id="path4287" />
    <path
       d="m 919.841,839.155 h -30.513 v -30.513 h 30.513 z"
       style="fill:#000000;fill-opacity:1;fill-rule:nonzero;stroke:none"
       id="path4289" />
    <path
       d="m 1212.761,802.54 h -30.512 v -30.513 h 30.512 z"
       style="fill:#000000;fill-opacity:1;fill-rule:nonzero;stroke:none"
       id="path4291" />
    <path
       d="m 1212.761,839.155 h -30.512 v -30.513 h 30.512 z"
       style="fill:#000000;fill-opacity:1;fill-rule:nonzero;stroke:none"
       id="path4293" />
    <path
       d="m 1218.864,808.642 h 30.513 v 30.513 h -30.513 z"
       style="fill:#000000;fill-opacity:1;fill-rule:nonzero;stroke:none"
       id="path4295" />
    <path
       d="m 1035.788,662.182 h 30.512 v 30.513 h -30.512 z"
       style="fill:#000000;fill-opacity:1;fill-rule:nonzero;stroke:none"
       id="path4297" />
    <path
       d="m 1066.301,729.31 h -30.512 v -30.513 h 30.512 z"
       style="fill:#000000;fill-opacity:1;fill-rule:nonzero;stroke:none"
       id="path4299" />
    <path
       d="m 1102.916,692.695 h -30.513 v -30.513 h 30.513 z"
       style="fill:#000000;fill-opacity:1;fill-rule:nonzero;stroke:none"
       id="path4301" />
    <path
       d="m 1139.531,711.002 h -30.513 v -30.513 h 30.513 z"
       style="fill:#000000;fill-opacity:1;fill-rule:nonzero;stroke:none"
       id="path4303" />
    <path
       d="m 1176.146,723.207 h -30.513 v -30.513 h 30.513 z"
       style="fill:#000000;fill-opacity:1;fill-rule:nonzero;stroke:none"
       id="path4305" />
    <path
       d="m 1212.761,723.207 h -30.512 v -30.513 h 30.512 z"
       style="fill:#000000;fill-opacity:1;fill-rule:nonzero;stroke:none"
       id="path4307" />
    <path
       d="m 1218.864,692.695 h 30.513 v 30.513 h -30.513 z"
       style="fill:#000000;fill-opacity:1;fill-rule:nonzero;stroke:none"
       id="path4309" />
    <path
       d="m 1282.94,683.541 h -30.513 v -30.513 h 30.513 z"
       style="fill:#000000;fill-opacity:1;fill-rule:nonzero;stroke:none"
       id="path4311" />
    <path
       d="m 1282.94,759.822 h -30.513 v -30.513 h 30.513 z"
       style="fill:#000000;fill-opacity:1;fill-rule:nonzero;stroke:none"
       id="path4313" />
    <path
       d="m 1322.606,726.258 h -30.513 v -30.513 h 30.513 z"
       style="fill:#000000;fill-opacity:1;fill-rule:nonzero;stroke:none"
       id="path4315" />
    <path
       d="m 1102.916,729.31 h -30.513 v -30.513 h 30.513 z"
       style="fill:#000000;fill-opacity:1;fill-rule:nonzero;stroke:none"
       id="path4317" />
    <path
       d="m 993.071,765.925 h -30.513 v -30.513 h 30.513 z"
       style="fill:#000000;fill-opacity:1;fill-rule:nonzero;stroke:none"
       id="path4319" />
    <path
       d="m 956.456,765.925 h -30.513 v -30.513 h 30.513 z"
       style="fill:#000000;fill-opacity:1;fill-rule:nonzero;stroke:none"
       id="path4321" />
    <path
       d="m 809.995,756.771 h -30.513 v -30.513 h 30.513 z"
       style="fill:#000000;fill-opacity:1;fill-rule:nonzero;stroke:none"
       id="path4323" />
    <path
       d="m 809.995,793.386 h -30.513 v -30.513 h 30.513 z"
       style="fill:#000000;fill-opacity:1;fill-rule:nonzero;stroke:none"
       id="path4325" />
    <path
       d="m 846.611,830.001 h -30.513 v -30.513 h 30.513 z"
       style="fill:#000000;fill-opacity:1;fill-rule:nonzero;stroke:none"
       id="path4327" />
    <path
       d="m 809.995,830.001 h -30.513 v -30.513 h 30.513 z"
       style="fill:#000000;fill-opacity:1;fill-rule:nonzero;stroke:none"
       id="path4329" />
    <path
       d="m 809.995,866.616 h -30.513 v -30.513 h 30.513 z"
       style="fill:#000000;fill-opacity:1;fill-rule:nonzero;stroke:none"
       id="path4331" />
    <path
       d="m 809.995,903.231 h -30.513 v -30.513 h 30.513 z"
       style="fill:#000000;fill-opacity:1;fill-rule:nonzero;stroke:none"
       id="path4333" />
    <path
       d="M 773.38,939.846 H 742.867 V 909.333 H 773.38 Z"
       style="fill:#000000;fill-opacity:1;fill-rule:nonzero;stroke:none"
       id="path4335" />
    <path
       d="m 846.611,903.231 h -30.513 v -30.513 h 30.513 z"
       style="fill:#000000;fill-opacity:1;fill-rule:nonzero;stroke:none"
       id="path4337" />
    <path
       d="m 883.226,866.616 h -30.513 v -30.513 h 30.513 z"
       style="fill:#000000;fill-opacity:1;fill-rule:nonzero;stroke:none"
       id="path4339" />
    <path
       d="M 773.38,866.616 H 742.867 V 836.103 H 773.38 Z"
       style="fill:#000000;fill-opacity:1;fill-rule:nonzero;stroke:none"
       id="path4341" />
    <path
       d="M 773.38,793.386 H 742.867 V 762.873 H 773.38 Z"
       style="fill:#000000;fill-opacity:1;fill-rule:nonzero;stroke:none"
       id="path4343" />
    <path
       d="m 736.765,759.822 h -30.513 v -30.513 h 30.513 z"
       style="fill:#000000;fill-opacity:1;fill-rule:nonzero;stroke:none"
       id="path4345" />
    <path
       d="M 700.15,759.822 H 669.637 V 729.309 H 700.15 Z"
       style="fill:#000000;fill-opacity:1;fill-rule:nonzero;stroke:none"
       id="path4347" />
    <path
       d="m 883.226,692.695 h -30.513 v -30.513 h 30.513 z"
       style="fill:#000000;fill-opacity:1;fill-rule:nonzero;stroke:none"
       id="path4349" />
    <path
       d="m 846.611,656.08 h -30.513 v -30.513 h 30.513 z"
       style="fill:#000000;fill-opacity:1;fill-rule:nonzero;stroke:none"
       id="path4351" />
    <path
       d="m 809.995,656.08 h -30.513 v -30.513 h 30.513 z"
       style="fill:#000000;fill-opacity:1;fill-rule:nonzero;stroke:none"
       id="path4353" />
    <path
       d="M 773.38,656.08 H 742.867 V 625.567 H 773.38 Z"
       style="fill:#000000;fill-opacity:1;fill-rule:nonzero;stroke:none"
       id="path4355" />
    <path
       d="m 736.765,656.08 h -30.513 v -30.513 h 30.513 z"
       style="fill:#000000;fill-opacity:1;fill-rule:nonzero;stroke:none"
       id="path4357" />
    <path
       d="M 700.15,656.08 H 669.637 V 625.567 H 700.15 Z"
       style="fill:#000000;fill-opacity:1;fill-rule:nonzero;stroke:none"
       id="path4359" />
    <path
       d="m 663.535,683.541 h -30.513 v -30.513 h 30.513 z"
       style="fill:#000000;fill-opacity:1;fill-rule:nonzero;stroke:none"
       id="path4361" />
    <path
       d="M 626.92,656.08 H 596.407 V 625.567 H 626.92 Z"
       style="fill:#000000;fill-opacity:1;fill-rule:nonzero;stroke:none"
       id="path4363" />
    <path
       d="M 626.92,707.951 H 596.407 V 677.438 H 626.92 Z"
       style="fill:#000000;fill-opacity:1;fill-rule:nonzero;stroke:none"
       id="path4365" />
    <path
       d="m 846.611,692.695 h -30.513 v -30.513 h 30.513 z"
       style="fill:#000000;fill-opacity:1;fill-rule:nonzero;stroke:none"
       id="path4367" />
    <path
       d="m 809.995,692.695 h -30.513 v -30.513 h 30.513 z"
       style="fill:#000000;fill-opacity:1;fill-rule:nonzero;stroke:none"
       id="path4369" />
    <path
       d="M 773.38,692.695 H 742.867 V 662.182 H 773.38 Z"
       style="fill:#000000;fill-opacity:1;fill-rule:nonzero;stroke:none"
       id="path4371" />
    <path
       d="m 736.765,707.951 h -30.513 v -30.513 h 30.513 z"
       style="fill:#000000;fill-opacity:1;fill-rule:nonzero;stroke:none"
       id="path4373" />
    <path
       d="M 700.15,707.951 H 669.637 V 677.438 H 700.15 Z"
       style="fill:#000000;fill-opacity:1;fill-rule:nonzero;stroke:none"
       id="path4375" />
    <path
       d="m 1029.686,692.695 h -30.513 v -30.513 h 30.513 z"
       style="fill:#000000;fill-opacity:1;fill-rule:nonzero;stroke:none"
       id="path4377" />
    <path
       d="m 993.071,692.695 h -30.513 v -30.513 h 30.513 z"
       style="fill:#000000;fill-opacity:1;fill-rule:nonzero;stroke:none"
       id="path4379" />
    <path
       d="m 956.456,692.695 h -30.513 v -30.513 h 30.513 z"
       style="fill:#000000;fill-opacity:1;fill-rule:nonzero;stroke:none"
       id="path4381" />
    <g
       id="g4383"
       transform="translate(559.3398,407.2684)">
      <path
         d="m 0,0 -54.47,-106.952 h 23.952 l 33.11,64.997 30.513,-64.997 H 56.752 L 6.251,0 Z"
         style="fill:#000000;fill-opacity:1;fill-rule:nonzero;stroke:none"
         id="path4385" />
    </g>
    <g
       id="g4387">
      <g
         id="g4389"
         clip-path="url(#clipPath4393)">
        <g
           id="g4395"
           transform="translate(655.4483,321.6753)">
          <path
             d="M 0,0 H -8.844 V 64.234 H 0 c 17.7,0 32.044,-14.341 32.044,-32.041 C 32.044,14.496 17.7,0 0,0 M 37.688,70.033 C 32.807,74.914 27.163,78.728 20.751,81.475 14.19,84.222 7.175,85.593 0,85.593 h -30.209 v -106.8 h 8.701 v -0.152 H 0 c 7.175,0 14.19,1.374 20.751,4.273 6.412,2.593 12.056,6.559 16.937,11.442 5.036,4.881 8.85,10.528 11.442,16.934 2.902,6.562 4.273,13.582 4.273,20.903 0,7.172 -1.371,14.19 -4.273,20.751 -2.592,6.406 -6.406,12.053 -11.442,17.089"
             style="fill:#000000;fill-opacity:1;fill-rule:nonzero;stroke:none"
             id="path4397" />
        </g>
        <g
           id="g4399"
           transform="translate(772.6236,407.2684)">
          <path
             d="m 0,0 h -6.257 l -54.47,-106.952 h 23.957 l 33.105,64.997 30.518,-64.997 h 23.648 z"
             style="fill:#000000;fill-opacity:1;fill-rule:nonzero;stroke:none"
             id="path4401" />
        </g>
        <g
           id="g4403"
           transform="translate(899.5546,347.462)">
          <path
             d="m 0,0 -59.047,59.806 h -6.71 V -47.145 h 21.359 v 62.401 l 60.113,-62.401 h 5.644 V 59.806 H 0 Z"
             style="fill:#000000;fill-opacity:1;fill-rule:nonzero;stroke:none"
             id="path4405" />
        </g>
        <g
           id="g4407"
           transform="translate(1006.4974,309.1664)">
          <path
             d="m 0,0 c 5.34,5.951 8.546,13.731 8.546,21.207 0,7.628 -2.902,14.8 -8.391,20.903 -5.495,5.95 -13.427,10.679 -23.653,14.189 -0.912,0.304 -1.83,0.611 -3.051,0.915 -9.762,2.44 -13.576,5.492 -13.731,10.986 -0.149,3.507 0.918,5.185 1.835,6.103 2.742,2.899 8.081,3.966 9.458,3.966 9.309,0 13.731,-2.899 20.596,-7.324 l 3.814,-2.441 11.138,18.156 -3.51,2.288 c -7.783,5.036 -16.478,10.68 -32.038,10.68 -5.495,0 -16.937,-2.289 -24.869,-10.528 -5.494,-5.795 -8.242,-13.272 -7.783,-21.817 0.459,-10.221 5.191,-18.46 13.731,-24.107 6.102,-4.118 12.664,-5.795 16.174,-6.713 l 0.763,-0.152 0.458,-0.152 c 11.139,-3.814 17.7,-9.154 17.7,-14.952 0,-2.748 -2.902,-10.832 -11.752,-10.832 -4.726,0 -17.39,0 -28.683,12.053 L -68.808,7.78 c 7.324,-7.78 15.864,-13.12 25.477,-16.171 7.628,-2.288 14.04,-2.595 18.766,-2.595 9.613,0 18.308,3.966 24.565,10.986"
             style="fill:#000000;fill-opacity:1;fill-rule:nonzero;stroke:none"
             id="path4409" />
        </g>
        <g
           id="g4411"
           transform="translate(1085.675,320.4566)">
          <path
             d="m 0,0 c -18.462,0 -33.415,14.952 -33.415,33.412 0,18.462 14.953,33.415 33.415,33.415 18.463,0 33.415,-14.953 33.415,-33.415 C 33.415,14.952 18.463,0 0,0 m 0,88.796 c -30.512,0 -55.381,-24.869 -55.381,-55.384 0,-30.513 24.869,-55.382 55.381,-55.382 30.519,0 55.387,24.869 55.387,55.382 0,30.515 -24.868,55.384 -55.387,55.384"
             style="fill:#000000;fill-opacity:1;fill-rule:nonzero;stroke:none"
             id="path4413" />
        </g>
        <g
           id="g4415"
           transform="translate(1225.1211,347.462)">
          <path
             d="m 0,0 -59.047,59.806 h -6.716 V -47.145 h 21.365 v 62.401 l 60.113,-62.401 h 5.644 V 59.806 H 0 Z"
             style="fill:#000000;fill-opacity:1;fill-rule:nonzero;stroke:none"
             id="path4417" />
        </g>
        <path
           d="m 1266.307,300.469 h 21.359 v 106.8 h -21.359 z"
           style="fill:#000000;fill-opacity:1;fill-rule:nonzero;stroke:none"
           id="path4419" />
        <g
           id="g4421"
           transform="translate(1363.6432,407.2684)">
          <path
             d="m 0,0 h -6.257 l -54.47,-106.952 h 23.957 l 33.105,64.997 30.518,-64.997 h 23.648 z"
             style="fill:#000000;fill-opacity:1;fill-rule:nonzero;stroke:none"
             id="path4423" />
        </g>
        <g
           id="g4425"
           transform="translate(754.9657,222.1371)">
          <path
             d="M 0,0 H -5.31 V 38.534 H 0 c 10.617,0 19.222,-8.603 19.222,-19.222 C 19.222,8.695 10.617,0 0,0 M 22.61,42.014 C 19.681,44.943 16.293,47.232 12.449,48.877 8.513,50.524 4.303,51.35 0,51.35 h -18.123 v -64.074 h 5.218 v -0.092 H 0 c 4.303,0 8.513,0.823 12.449,2.563 3.844,1.555 7.232,3.936 10.161,6.865 3.019,2.929 5.307,6.317 6.863,10.161 1.74,3.936 2.565,8.147 2.565,12.539 0,4.302 -0.825,8.513 -2.565,12.449 -1.556,3.844 -3.844,7.232 -6.863,10.253"
             style="fill:#000000;fill-opacity:1;fill-rule:nonzero;stroke:none"
             id="path4427" />
        </g>
        <path
           d="m 811.721,209.414 h 12.813 v 64.073 h -12.813 z"
           style="fill:#000000;fill-opacity:1;fill-rule:nonzero;stroke:none"
           id="path4429" />
        <g
           id="g4431"
           transform="translate(891.0802,236.0495)">
          <path
             d="M 0,0 H 14.464 C 12.083,-8.606 4.121,-15.286 -5.218,-15.286 c -5.399,0 -10.524,2.196 -14.368,6.132 -3.754,3.844 -5.858,9.062 -5.769,14.464 0,5.399 2.199,10.524 6.043,14.279 3.844,3.844 8.969,5.947 14.372,5.947 h 0.181 c 4.118,-0.089 7.965,-1.281 11.258,-3.569 l 9.246,9.064 C 10.161,35.516 3.114,38.26 -4.666,38.352 H -4.94 c -18.216,0 -33.046,-14.645 -33.227,-32.86 -0.185,-18.397 14.46,-33.135 32.86,-33.32 h 0.089 c 17.211,0 31.857,14.005 31.857,34.142 v 6.499 L 0,12.813 Z"
             style="fill:#000000;fill-opacity:1;fill-rule:nonzero;stroke:none"
             id="path4433" />
        </g>
        <path
           d="m 947.928,209.414 h 12.813 v 64.073 h -12.813 z"
           style="fill:#000000;fill-opacity:1;fill-rule:nonzero;stroke:none"
           id="path4435" />
        <g
           id="g4437"
           transform="translate(989.5755,260.6711)">
          <path
             d="M 0,0 H 17.849 V -51.35 H 30.665 V 0 H 48.421 V 12.816 H 0 Z"
             style="fill:#000000;fill-opacity:1;fill-rule:nonzero;stroke:none"
             id="path4439" />
        </g>
        <g
           id="g4441"
           transform="translate(1086.6971,273.4869)">
          <path
             d="m 0,0 -32.679,-64.166 h 14.372 L 1.556,-25.173 19.863,-64.166 H 34.049 L 3.752,0 Z"
             style="fill:#000000;fill-opacity:1;fill-rule:nonzero;stroke:none"
             id="path4443" />
        </g>
        <g
           id="g4445"
           transform="translate(1158.2795,273.4869)">
          <path
             d="M 0,0 H -12.813 V -64.073 H 23.891 V -51.35 L 0,-51.35 Z"
             style="fill:#000000;fill-opacity:1;fill-rule:nonzero;stroke:none"
             id="path4447" />
        </g>
      </g>
    </g>
  </g>
</svg>
