<svg id="Layer_1" data-name="Layer 1" xmlns="http://www.w3.org/2000/svg" xmlns:xlink="http://www.w3.org/1999/xlink" viewBox="0 0 512 512"><defs><style>.cls-1{fill:url(#linear-gradient);}.cls-2{fill:#fff;}</style><linearGradient id="linear-gradient" x1="80" y1="256" x2="432" y2="256" gradientUnits="userSpaceOnUse"><stop offset="0.23" stop-color="#1394e7"/><stop offset="1" stop-color="#000046"/></linearGradient></defs><circle class="cls-1" cx="256" cy="256" r="176"/><rect class="cls-2" x="269" y="266.54" width="10" height="10"/><rect class="cls-2" x="257" y="266.54" width="10" height="10"/><rect class="cls-2" x="245" y="266.54" width="10" height="10"/><rect class="cls-2" x="269" y="254.54" width="10" height="10"/><rect class="cls-2" x="257" y="254.54" width="10" height="10"/><rect class="cls-2" x="245" y="254.54" width="10" height="10"/><rect class="cls-2" x="269" y="242.54" width="10" height="10"/><rect class="cls-2" x="257" y="242.54" width="10" height="10"/><rect class="cls-2" x="245" y="242.54" width="10" height="10"/><rect class="cls-2" x="269" y="302.54" width="10" height="10"/><rect class="cls-2" x="257" y="302.54" width="10" height="10"/><rect class="cls-2" x="245" y="302.54" width="10" height="10"/><rect class="cls-2" x="269" y="290.54" width="10" height="10"/><rect class="cls-2" x="257" y="290.54" width="10" height="10"/><rect class="cls-2" x="245" y="290.54" width="10" height="10"/><rect class="cls-2" x="269" y="278.54" width="10" height="10"/><rect class="cls-2" x="257" y="278.54" width="10" height="10"/><rect class="cls-2" x="245" y="278.54" width="10" height="10"/><rect class="cls-2" x="233" y="266.54" width="10" height="10"/><rect class="cls-2" x="233" y="254.54" width="10" height="10"/><rect class="cls-2" x="233" y="302.54" width="10" height="10"/><rect class="cls-2" x="233" y="290.54" width="10" height="10"/><rect class="cls-2" x="233" y="278.54" width="10" height="10"/><rect class="cls-2" x="233" y="242.54" width="10" height="10"/><rect class="cls-2" x="221" y="242.54" width="10" height="10"/><rect class="cls-2" x="233" y="230.54" width="10" height="10"/><rect class="cls-2" x="233" y="218.54" width="10" height="10"/><rect class="cls-2" x="221" y="197.54" width="10" height="10"/><rect class="cls-2" x="233" y="206.54" width="10" height="10"/><rect class="cls-2" x="221" y="218.54" width="10" height="10"/><rect class="cls-2" x="209" y="218.54" width="10" height="10"/><rect class="cls-2" x="269" y="218.54" width="10" height="10"/><rect class="cls-2" x="257" y="218.54" width="10" height="10"/><rect class="cls-2" x="245" y="218.54" width="10" height="10"/><rect class="cls-2" x="269" y="206.54" width="10" height="10"/><rect class="cls-2" x="281" y="206.54" width="10" height="10"/><rect class="cls-2" x="293" y="206.54" width="10" height="10"/><rect class="cls-2" x="305" y="206.54" width="10" height="10"/><rect class="cls-2" x="317" y="206.54" width="10" height="10"/><rect class="cls-2" x="317" y="194.54" width="10" height="10"/><rect class="cls-2" x="293" y="194.54" width="10" height="10"/><rect class="cls-2" x="281" y="194.54" width="10" height="10"/><rect class="cls-2" x="281" y="182.54" width="10" height="10"/><rect class="cls-2" x="293" y="182.54" width="10" height="10"/><rect class="cls-2" x="293" y="170.54" width="10" height="10"/><rect class="cls-2" x="305" y="170.54" width="10" height="10"/><rect class="cls-2" x="317" y="158.54" width="10" height="10"/><rect class="cls-2" x="269" y="194.54" width="10" height="10"/><rect class="cls-2" x="257" y="194.54" width="10" height="10"/><rect class="cls-2" x="269" y="182.54" width="10" height="10"/><rect class="cls-2" x="257" y="182.54" width="10" height="10"/><rect class="cls-2" x="257" y="170.54" width="10" height="10"/><rect class="cls-2" x="257" y="158.54" width="10" height="10"/><rect class="cls-2" x="269" y="158.54" width="10" height="10"/><rect class="cls-2" x="269" y="170.54" width="10" height="10"/><rect class="cls-2" x="280" y="146.54" width="10" height="10"/><rect class="cls-2" x="257" y="146.54" width="10" height="10"/><rect class="cls-2" x="245" y="158.54" width="10" height="10"/><rect class="cls-2" x="245" y="182.54" width="10" height="10"/><rect class="cls-2" x="233" y="182.54" width="10" height="10"/><rect class="cls-2" x="329" y="194.54" width="10" height="10"/><rect class="cls-2" x="329" y="182.54" width="10" height="10"/><rect class="cls-2" x="341" y="182.54" width="10" height="10"/><rect class="cls-2" x="281" y="230.54" width="10" height="10"/><rect class="cls-2" x="281" y="218.54" width="10" height="10"/><rect class="cls-2" x="293" y="230.54" width="10" height="10"/><rect class="cls-2" x="305" y="224.54" width="10" height="10"/><rect class="cls-2" x="317" y="220.54" width="10" height="10"/><rect class="cls-2" x="329" y="220.54" width="10" height="10"/><rect class="cls-2" x="341" y="220.54" width="10" height="10"/><rect class="cls-2" x="352" y="233.54" width="10" height="10"/><rect class="cls-2" x="352" y="208.54" width="10" height="10"/><rect class="cls-2" x="365" y="219.54" width="10" height="10"/><rect class="cls-2" x="293" y="218.54" width="10" height="10"/><rect class="cls-2" x="257" y="206.54" width="10" height="10"/><rect class="cls-2" x="245" y="206.54" width="10" height="10"/><rect class="cls-2" x="197" y="209.54" width="10" height="10"/><rect class="cls-2" x="197" y="197.54" width="10" height="10"/><rect class="cls-2" x="209" y="185.54" width="10" height="10"/><rect class="cls-2" x="197" y="185.54" width="10" height="10"/><rect class="cls-2" x="197" y="173.54" width="10" height="10"/><rect class="cls-2" x="197" y="161.54" width="10" height="10"/><rect class="cls-2" x="185" y="149.54" width="10" height="10"/><rect class="cls-2" x="209" y="161.54" width="10" height="10"/><rect class="cls-2" x="221" y="173.54" width="10" height="10"/><rect class="cls-2" x="185" y="173.54" width="10" height="10"/><rect class="cls-2" x="185" y="197.54" width="10" height="10"/><rect class="cls-2" x="173" y="208.54" width="10" height="10"/><rect class="cls-2" x="161" y="208.54" width="10" height="10"/><rect class="cls-2" x="221" y="230.54" width="10" height="10"/><rect class="cls-2" x="209" y="242.54" width="10" height="10"/><rect class="cls-2" x="197" y="242.54" width="10" height="10"/><rect class="cls-2" x="185" y="242.54" width="10" height="10"/><rect class="cls-2" x="173" y="242.54" width="10" height="10"/><rect class="cls-2" x="161" y="242.54" width="10" height="10"/><rect class="cls-2" x="149" y="233.54" width="10" height="10"/><rect class="cls-2" x="137" y="242.54" width="10" height="10"/><rect class="cls-2" x="137" y="225.54" width="10" height="10"/><rect class="cls-2" x="209" y="230.54" width="10" height="10"/><rect class="cls-2" x="197" y="230.54" width="10" height="10"/><rect class="cls-2" x="185" y="230.54" width="10" height="10"/><rect class="cls-2" x="173" y="225.54" width="10" height="10"/><rect class="cls-2" x="161" y="225.54" width="10" height="10"/><rect class="cls-2" x="269" y="230.54" width="10" height="10"/><rect class="cls-2" x="257" y="230.54" width="10" height="10"/><rect class="cls-2" x="245" y="230.54" width="10" height="10"/><path class="cls-2" d="M167.31,362.74a12.32,12.32,0,0,1-4.82-4.62,12.88,12.88,0,0,1-1.75-6.66,12.68,12.68,0,0,1,1.77-6.66,12.46,12.46,0,0,1,4.84-4.63,14.14,14.14,0,0,1,6.89-1.67,14.42,14.42,0,0,1,5.66,1.08,11.56,11.56,0,0,1,4.32,3.13l-3,2.84a8.81,8.81,0,0,0-6.73-2.95,9.46,9.46,0,0,0-4.64,1.13,8.24,8.24,0,0,0-3.21,3.15,9.68,9.68,0,0,0,0,9.15,8.24,8.24,0,0,0,3.21,3.15,9.46,9.46,0,0,0,4.64,1.13,8.74,8.74,0,0,0,6.73-3l3,2.89a11.67,11.67,0,0,1-4.34,3.13,14.54,14.54,0,0,1-5.67,1.08A14.18,14.18,0,0,1,167.31,362.74Z"/><path class="cls-2" d="M196.6,362.74a12.4,12.4,0,0,1-4.86-4.64,13.42,13.42,0,0,1,0-13.29,12.47,12.47,0,0,1,4.86-4.64,15.3,15.3,0,0,1,13.9,0,12.51,12.51,0,0,1,4.86,4.63,13.48,13.48,0,0,1,0,13.32,12.49,12.49,0,0,1-4.86,4.62,15.22,15.22,0,0,1-13.9,0Zm11.48-3.56a8.19,8.19,0,0,0,3.17-3.17,9.6,9.6,0,0,0,0-9.11,8.25,8.25,0,0,0-3.17-3.17,9.67,9.67,0,0,0-9.07,0,8.32,8.32,0,0,0-3.17,3.17,9.6,9.6,0,0,0,0,9.11,8.25,8.25,0,0,0,3.17,3.17,9.67,9.67,0,0,0,9.07,0Z"/><path class="cls-2" d="M225.69,338.86h4.68V360.1h13.17v4H225.69Z"/><path class="cls-2" d="M250.85,338.86h4.68V360.1h13.18v4H250.85Z"/><path class="cls-2" d="M294.92,360.13v3.93H276v-25.2h18.39v3.92H280.7v6.55h12.16v3.85H280.7v6.95Z"/><path class="cls-2" d="M308.4,362.74a12.41,12.41,0,0,1-4.83-4.62,13.55,13.55,0,0,1,0-13.32,12.53,12.53,0,0,1,4.84-4.63,14.17,14.17,0,0,1,6.9-1.67,14.37,14.37,0,0,1,5.65,1.08,11.56,11.56,0,0,1,4.32,3.13l-3,2.84a8.83,8.83,0,0,0-6.74-2.95,9.51,9.51,0,0,0-4.64,1.13,8.15,8.15,0,0,0-3.2,3.15,9.6,9.6,0,0,0,0,9.15,8.15,8.15,0,0,0,3.2,3.15,9.51,9.51,0,0,0,4.64,1.13,8.76,8.76,0,0,0,6.74-3l3,2.89a11.59,11.59,0,0,1-4.34,3.13,14.47,14.47,0,0,1-5.67,1.08A14.14,14.14,0,0,1,308.4,362.74Z"/><path class="cls-2" d="M338.22,342.82h-8.35v-4h21.39v4H342.9v21.24h-4.68Z"/></svg>